<?xml version="1.0" encoding="UTF-8" standalone="no"?><!DOCTYPE svg PUBLIC "-//W3C//DTD SVG 1.1//EN" "http://www.w3.org/Graphics/SVG/1.1/DTD/svg11.dtd"><svg width="100%" height="100%" viewBox="0 0 245 43" version="1.1" xmlns="http://www.w3.org/2000/svg" xmlns:xlink="http://www.w3.org/1999/xlink" xml:space="preserve" xmlns:serif="http://www.serif.com/" style="fill-rule:evenodd;clip-rule:evenodd;stroke-linejoin:round;stroke-miterlimit:2;"><path d="M0.187,22.244l0,19.961l10.303,0l-0,-10.946l51.32,-0l-0,4.056l7.92,-7.92l-8.886,-8.886l-0,3.735l-60.657,-0Z" style="fill:#fff;fill-rule:nonzero;"/><path d="M2.81,7.653l-2.81,-2.81l-0,11.423l13.145,-0c-1.032,-0.585 -3.095,-2.023 -3.095,-3.095c-0,-1.073 1.444,-1.892 2.166,-2.167l56.536,-0l0,11.761l4.643,4.643l-4.643,4.642l0,10.111l10.523,-0l0,-41.886c-20.496,0.275 -62.602,0.66 -67.059,-0c-4.456,-0.661 -8.128,4.643 -9.406,7.378Z" style="fill:#fff;fill-rule:nonzero;"/><path d="M83.261,0.18l-0,41.997l10.037,-0l-0,-10.037l68.871,0l-0,-20.008c-0,-6.709 -7.967,-10.763 -11.951,-11.952l-66.957,0Z" style="fill:#fff;fill-rule:nonzero;"/><path d="M165.972,12.746l-0,29.134l10.652,-0l-0,-26.585c-0,-4.807 3.702,-5.705 5.554,-5.553l14.111,-0c4.734,-0 5.675,3.702 5.554,5.553l-0,26.585l8.831,-0l-0,-24.582c-0,-6.409 4.188,-6.858 6.282,-6.282l11.745,0c4.879,0 6.221,4.188 6.281,6.282l-0,24.582l9.742,-0l-0,-32.138c-0,-5.463 -6.494,-8.771 -9.742,-9.742l-25.127,-0l-4.006,4.006l-4.006,-4.006l-23.125,-0c-9.031,-0 -12.26,8.497 -12.746,12.746Z" style="fill:#fff;fill-rule:nonzero;"/><path d="M93.562,21.839l-0,-11.093l54.543,-0c3.486,-0 3.829,2.377 3.565,3.565l-0,7.528l-58.108,-0Z" style="fill:#7c98d7;fill-rule:nonzero;"/></svg>